<?xml version="1.0" encoding="UTF-8"?>
<svg width="33px" height="10px" viewBox="0 0 33 10" version="1.1" xmlns="http://www.w3.org/2000/svg" xmlns:xlink="http://www.w3.org/1999/xlink">
    <!-- Generator: Sketch 61.2 (89653) - https://sketch.com -->
    <title>Next</title>
    <desc>Created with Sketch.</desc>
    <g id="Symbols" stroke="none" stroke-width="1" fill="none" fill-rule="evenodd">
        <g id="Button" transform="translate(-177.000000, -19.000000)" fill="#FFFFFF" fill-rule="nonzero">
            <g id="Next" transform="translate(177.000000, 19.000000)">
                <path d="M28.3518903,9.86269507 L32.8638811,5.33145587 C33.045373,5.14838899 33.045373,4.85160625 32.8638811,4.66850121 L28.3518903,0.137300164 C28.1703984,-0.0457667213 27.8760699,-0.0457667213 27.694578,0.137300164 L27.4206758,0.413483588 C27.239184,0.596550473 27.239184,0.893333213 27.4206758,1.0764001 L30.6715667,4.3359367 L0.464812864,4.3359367 C0.208121776,4.3359367 0,4.54582084 0,4.80468558 L0,5.19530965 C0,5.45417439 0.208121776,5.66405853 0.464812864,5.66405853 L30.6715667,5.66405853 L27.4206758,8.92359513 C27.239184,9.10662387 27.239184,9.40340661 27.4206758,9.58651164 L27.694578,9.86269507 C27.8760699,10.0457238 28.1703984,10.0457238 28.3518903,9.86269507 Z" id=""></path>
            </g>
        </g>
    </g>
</svg>